<svg width="19" height="22" viewBox="0 0 19 22" fill="none" xmlns="http://www.w3.org/2000/svg">
<path d="M1.74948 6.2204L1.5 6.36483V6.65311V15.3469V15.6352L1.74948 15.7796L9.24948 20.1217L9.5 20.2667L9.75052 20.1217L17.2505 15.7796L17.5 15.6352V15.3469V6.65311V6.36483L17.2505 6.2204L9.75052 1.87829L9.5 1.73325L9.24948 1.87829L1.74948 6.2204ZM0.5 5.78828L9.5 0.57775L18.5 5.78828V16.2117L9.5 21.4223L0.5 16.2117V5.78828Z" fill="#FBBF24" stroke="#FBBF24"/>
<path d="M8.00002 7.5H7.50002V8V11V11.5H8.00002H10.8335C11.9381 11.5 12.8335 10.6045 12.8335 9.5C12.8335 8.39542 11.9381 7.5 10.8335 7.5H8.00002ZM8.00002 12.5H7.50002V13V15.5H6.5V6.5H10.8335C12.4904 6.5 13.8335 7.84314 13.8335 9.5C13.8335 11.1569 12.4904 12.5 10.8335 12.5H8.00002Z" fill="#FBBF24" stroke="#FBBF24"/>
</svg>
